<svg xmlns="http://www.w3.org/2000/svg" viewBox="0 0 192 192">
<rect width="192" height="192" fill="#ffffff" rx="24"/>
<path d="M0 0 C0.76206253 0.00478867 1.52412506 0.00957733 2.3092804 0.01451111 C4.80181739 0.03204396 7.29417126 0.05782656 9.78662109 0.08496094 C11.53201243 0.10167679 13.27740429 0.11833851 15.02279663 0.13494873 C18.6690637 0.17128755 22.31524187 0.2124918 25.96142578 0.25634766 C30.62616662 0.31146428 35.29085633 0.34793674 39.95580482 0.37997818 C43.55564768 0.40787058 47.15525451 0.44892241 50.75492477 0.49358368 C52.47480995 0.51272856 54.19475604 0.52705024 55.91472244 0.53638458 C58.31984374 0.55075784 60.72404763 0.58369069 63.12890625 0.62109375 C64.18575874 0.62129768 64.18575874 0.62129768 65.26396179 0.62150574 C69.85814246 0.71863511 73.01479675 1.68742908 76.93505859 4.06933594 C81.41814244 9.32614999 83.14198846 16.42984728 84.94287109 22.95605469 C85.97932615 26.20823847 87.37009029 29.04075738 88.93505859 32.06933594 C90.56853135 35.92580545 91.93070953 39.86578768 93.31005859 43.81933594 C95.27993528 49.36869356 97.46409587 54.72886812 99.93505859 60.06933594 C101.27391121 63.14869695 101.93505859 64.70687125 101.93505859 68.06933594 C102.59505859 68.06933594 103.25505859 68.06933594 103.93505859 68.06933594 C104.20318359 69.26558594 104.47130859 70.46183594 104.74755859 71.69433594 C105.68653507 75.47007939 107.16391012 78.59788494 108.93505859 82.06933594 C113.15599658 91.33139417 114.62646882 103.33472117 111.37255859 113.06933594 C106.80756922 123.4768885 99.0763239 131.65189051 88.63648987 136.20092773 C83.59992319 137.81999384 78.51769933 137.63172912 73.27099609 137.60839844 C72.07954987 137.62019135 70.88810364 137.63198425 69.66055298 137.64413452 C65.87692024 137.67925052 62.09384065 137.68855034 58.31005859 137.69433594 C54.51930172 137.71071278 50.72878914 137.73281105 46.93814087 137.76596069 C44.58645926 137.78549217 42.23466587 137.79493633 39.88290405 137.7928772 C34.2155274 137.82968215 29.23731436 137.96199344 23.93505859 140.06933594 C23.60505859 140.72933594 23.27505859 141.38933594 22.93505859 142.06933594 C21.26839193 142.7360026 19.60172526 143.40266927 17.93505859 144.06933594 C17.60505859 144.72933594 17.27505859 145.38933594 16.93505859 146.06933594 C15.60844183 146.42846941 14.27371154 146.75805282 12.93505859 147.06933594 C11.06269139 147.99387611 11.06269139 147.99387611 9.21240234 149.14355469 C8.51381104 149.56137207 7.81521973 149.97918945 7.09545898 150.40966797 C6.36190186 150.8542334 5.62834473 151.29879883 4.87255859 151.75683594 C3.34984959 152.66560977 1.82641071 153.57316178 0.30224609 154.47949219 C-0.44057617 154.92180176 -1.18339844 155.36411133 -1.94873047 155.81982422 C-14.22672335 163.06933594 -14.22672335 163.06933594 -17.06494141 163.06933594 C-17.06494141 163.72933594 -17.06494141 164.38933594 -17.06494141 165.06933594 C-20.03494141 166.05933594 -23.00494141 167.04933594 -26.06494141 168.06933594 C-26.06494141 163.71784422 -25.1812042 161.57032768 -23.43994141 157.62402344 C-23.17358887 157.01293732 -22.90723633 156.4018512 -22.6328125 155.77224731 C-21.78370184 153.82652417 -20.92500066 151.88524147 -20.06494141 149.94433594 C-19.20617002 147.99577021 -18.34952931 146.04633705 -17.49707031 144.09500122 C-16.72491546 142.32901229 -15.94587079 140.56604065 -15.16650391 138.80322266 C-13.94036421 136.25140189 -13.94036421 136.25140189 -14.06494141 134.06933594 C-13.40494141 133.73933594 -12.74494141 133.40933594 -12.06494141 133.06933594 C-11.03633631 130.95628718 -10.09167192 128.80206301 -9.18994141 126.63183594 C-8.92383057 125.99874512 -8.65771973 125.3656543 -8.38354492 124.71337891 C-6.85727688 121.06418978 -5.41468784 117.38923374 -4.00244141 113.69433594 C-1.09196267 106.41215047 1.8042373 100.86647795 8.93505859 97.06933594 C12.07739477 96.41599375 15.16947203 96.32242715 18.37255859 96.25683594 C19.29891113 96.22533447 20.22526367 96.19383301 21.1796875 96.16137695 C34.7604832 95.81651333 48.36894711 96.4842924 61.93505859 97.06933594 C62.26505859 96.40933594 62.59505859 95.74933594 62.93505859 95.06933594 C62.93505859 95.72933594 62.93505859 96.38933594 62.93505859 97.06933594 C63.59505859 97.06933594 64.25505859 97.06933594 64.93505859 97.06933594 C63.93058028 91.47862111 62.4214416 86.58853536 60.00537109 81.45214844 C58.84230837 78.86284822 57.88162135 76.24505271 56.93505859 73.56933594 C55.70986875 70.11958572 54.39739399 66.77230368 52.87255859 63.44433594 C47.93505859 52.61306123 47.93505859 52.61306123 47.93505859 48.06933594 C47.27505859 48.06933594 46.61505859 48.06933594 45.93505859 48.06933594 C45.55865234 47.58980469 45.18224609 47.11027344 44.79443359 46.61621094 C41.93198438 44.23484562 38.75812657 44.45626008 35.18505859 44.31933594 C34.49412109 44.27679688 33.80318359 44.23425781 33.09130859 44.19042969 C28.57199752 43.96106616 24.42102152 44.38475351 19.93505859 45.06933594 C19.06880859 44.88371094 18.20255859 44.69808594 17.31005859 44.50683594 C14.15524455 43.92568598 12.69644634 44.47063777 9.93505859 46.06933594 C7.07245968 50.19553437 5.33801215 54.74193418 3.49755859 59.38183594 C1.48459306 64.44365265 -0.66866945 69.33618904 -3.14770508 74.18725586 C-4.47415663 76.90900592 -5.483457 79.72041069 -6.50244141 82.56933594 C-11.69407081 96.14623344 -11.69407081 96.14623344 -18.00244141 99.44433594 C-19.33769487 100.03107976 -20.69499423 100.56892124 -22.06494141 101.06933594 C-23.33724609 101.62041016 -23.33724609 101.62041016 -24.63525391 102.18261719 C-29.4930416 103.43856002 -34.02098759 103.14401772 -39.00244141 102.88183594 C-39.96601562 102.85025391 -40.92958984 102.81867188 -41.92236328 102.78613281 C-47.63358959 102.51677217 -52.04438945 101.87710135 -57.06494141 99.06933594 C-60.09869774 94.42389655 -60.57907182 90.54807764 -59.85009766 85.08496094 C-58.46355254 79.75952397 -56.09235976 74.8677067 -53.75634766 69.90136719 C-52.11793718 66.36005352 -51.03942534 62.84484905 -50.06494141 59.06933594 C-49.40494141 59.06933594 -48.74494141 59.06933594 -48.06494141 59.06933594 C-47.40494141 56.09933594 -46.74494141 53.12933594 -46.06494141 50.06933594 C-45.40494141 50.06933594 -44.74494141 50.06933594 -44.06494141 50.06933594 C-43.93748535 49.33827637 -43.8100293 48.6072168 -43.67871094 47.85400391 C-43.0971635 45.21552737 -42.31286892 42.98932556 -41.24462891 40.51464844 C-40.87748779 39.65935547 -40.51034668 38.8040625 -40.13208008 37.92285156 C-39.73867432 37.02244141 -39.34526855 36.12203125 -38.93994141 35.19433594 C-38.53686768 34.26556641 -38.13379395 33.33679687 -37.71850586 32.37988281 C-36.50907254 29.60590494 -35.28961252 26.83661676 -34.06494141 24.06933594 C-33.72027832 23.28913086 -33.37561523 22.50892578 -33.02050781 21.70507812 C-32.10858127 19.6547395 -31.1843026 17.61067973 -30.25244141 15.56933594 C-29.73037109 14.42464844 -29.20830078 13.27996094 -28.67041016 12.10058594 C-25.46395315 6.04654546 -22.61676027 3.25327556 -16.06494141 1.06933594 C-10.67812259 0.24074374 -5.45136986 -0.06406738 0 0 Z M-16.47406006 15.46174622 C-20.54395709 22.13265332 -23.46400916 28.97956647 -26.03369141 36.34667969 C-27.34444676 39.80727241 -28.97644308 43.03237792 -30.72119141 46.29199219 C-31.88607617 48.69964645 -32.88468431 51.08997144 -33.86181641 53.57714844 C-35.42712265 57.54815678 -37.10503831 61.44873136 -38.86181641 65.33886719 C-39.34521484 66.41201172 -39.82861328 67.48515625 -40.32666016 68.59082031 C-41.32883669 70.80691935 -42.3367668 73.02042443 -43.35009766 75.23144531 C-43.82833984 76.29814453 -44.30658203 77.36484375 -44.79931641 78.46386719 C-45.4523877 79.90016479 -45.4523877 79.90016479 -46.11865234 81.36547852 C-47.10090898 84.17210707 -47.41024885 86.12315513 -47.06494141 89.06933594 C-44.45584551 91.67843183 -42.59767825 91.33042561 -39.04150391 91.34277344 C-37.87748047 91.33117187 -37.87748047 91.33117187 -36.68994141 91.31933594 C-35.92166016 91.32707031 -35.15337891 91.33480469 -34.36181641 91.34277344 C-28.9371428 91.32807597 -28.9371428 91.32807597 -24.06494141 89.06933594 C-24.06494141 88.40933594 -24.06494141 87.74933594 -24.06494141 87.06933594 C-23.15228516 86.76382813 -23.15228516 86.76382813 -22.22119141 86.45214844 C-19.14970773 84.4823926 -18.73728372 82.35838685 -17.56494141 78.94433594 C-14.89914167 71.51585739 -14.89914167 71.51585739 -13.06494141 68.06933594 C-10.71139226 63.58139404 -9.01303807 58.85905829 -7.22509766 54.12402344 C-5.48672015 49.54688132 -3.60192391 45.12341271 -1.37744141 40.75683594 C0.08133703 38.26829202 0.08133703 38.26829202 -0.06494141 36.06933594 C1.06943359 35.75996094 2.20380859 35.45058594 3.37255859 35.13183594 C6.72280958 34.44009063 6.72280958 34.44009063 7.93505859 33.06933594 C10.73952768 33.01505836 13.51506442 33.02515588 16.31787109 33.08496094 C17.58931473 33.1097049 17.58931473 33.1097049 18.88644409 33.13494873 C20.68721651 33.17253676 22.48792898 33.21309372 24.28857422 33.25634766 C27.02743615 33.31859452 29.76612054 33.36034268 32.50537109 33.40136719 C34.25539998 33.44045942 36.00540182 33.48078566 37.75537109 33.52246094 C38.56918243 33.53198792 39.38299377 33.54151489 40.22146606 33.55133057 C45.48320618 33.70722084 49.28326245 34.54354587 53.93505859 37.06933594 C55.62972856 39.49071851 56.77502158 41.4188591 57.93505859 44.06933594 C58.22493652 44.71821777 58.51481445 45.36709961 58.81347656 46.03564453 C59.70138574 48.09677305 60.54240749 50.17181633 61.37255859 52.25683594 C61.9842977 53.76865185 62.59627784 55.28037025 63.20849609 56.79199219 C63.50336914 57.52434082 63.79824219 58.25668945 64.10205078 59.01123047 C65.21014565 61.74899123 66.35243064 64.47188658 67.49755859 67.19433594 C68.31186921 69.15191708 69.12425007 71.11030168 69.93505859 73.06933594 C70.18674805 73.67551758 70.4384375 74.28169922 70.69775391 74.90625 C79.34924633 95.81838224 79.34924633 95.81838224 75.93505859 104.06933594 C73.06005859 105.44433594 73.06005859 105.44433594 69.93505859 106.06933594 C69.32057358 106.40859604 68.70608856 106.74785614 68.07298279 107.09739685 C65.42534189 108.30106239 63.50633248 108.28826186 60.60327148 108.24536133 C59.53859146 108.23618179 58.47391144 108.22700226 57.37696838 108.21754456 C56.23211472 108.20086227 55.08726105 108.18417999 53.90771484 108.16699219 C51.48258725 108.16292882 49.05745521 108.16104271 46.63232422 108.16113281 C42.80866386 108.15301673 38.98705959 108.13167481 35.16381836 108.07299805 C31.47317138 108.02187447 27.78610939 108.02725962 24.09521484 108.04199219 C22.95238541 108.01114029 21.80955597 107.98028839 20.63209534 107.94850159 C17.4848147 107.98648 14.92977518 108.09522032 11.93505859 109.06933594 C9.41545133 111.78256702 8.15522481 114.60410887 6.93505859 118.06933594 C6.50193359 119.16246094 6.06880859 120.25558594 5.62255859 121.38183594 C4.76983643 124.25286397 4.76983643 124.25286397 4.93505859 128.06933594 C4.27505859 128.06933594 3.61505859 128.06933594 2.93505859 128.06933594 C1.28505859 132.35933594 -0.36494141 136.64933594 -2.06494141 141.06933594 C0.41005859 140.07933594 0.41005859 140.07933594 2.93505859 139.06933594 C2.93505859 138.40933594 2.93505859 137.74933594 2.93505859 137.06933594 C3.73943359 137.02808594 4.54380859 136.98683594 5.37255859 136.94433594 C11.0280478 135.55526841 15.82831295 132.17608158 19.93505859 128.06933594 C27.13769648 125.76471204 34.5860255 125.80143366 42.06787109 125.87402344 C43.18571991 125.87685333 44.30356873 125.87968323 45.45529175 125.88259888 C48.9903276 125.89370377 52.52510062 125.91879015 56.06005859 125.94433594 C58.47151324 125.95437827 60.8829719 125.96350191 63.29443359 125.97167969 C69.17473008 125.99361127 75.05487555 126.02699101 80.93505859 126.06933594 C80.93505859 125.40933594 80.93505859 124.74933594 80.93505859 124.06933594 C82.58505859 124.06933594 84.23505859 124.06933594 85.93505859 124.06933594 C85.93505859 123.40933594 85.93505859 122.74933594 85.93505859 122.06933594 C87.25505859 122.06933594 88.57505859 122.06933594 89.93505859 122.06933594 C91.51838389 120.82049323 91.51838389 120.82049323 92.93505859 119.06933594 C93.59505859 118.45058594 94.25505859 117.83183594 94.93505859 117.19433594 C99.60282393 112.23483527 100.92435231 107.77146791 100.93505859 101.06933594 C100.30705509 94.10420619 97.85086568 87.99641023 95.05615234 81.63574219 C93.93505859 79.06933594 93.93505859 79.06933594 92.93505859 76.06933594 C92.27505859 76.06933594 91.61505859 76.06933594 90.93505859 76.06933594 C91.01755859 75.22371094 91.10005859 74.37808594 91.18505859 73.50683594 C90.92410984 69.91879062 89.94698483 68.10521046 88.07568359 65.10058594 C85.29729878 60.15277736 83.72188165 54.53890243 82.00537109 49.15136719 C79.89502317 42.5499896 77.3074565 36.39693786 74.32958984 30.13964844 C72.534567 26.18758134 71.20072728 22.21791665 69.93505859 18.06933594 C69.27505859 18.06933594 68.61505859 18.06933594 67.93505859 18.06933594 C67.44005859 15.59433594 67.44005859 15.59433594 66.93505859 13.06933594 C56.44317191 12.95352623 45.95143707 12.86466333 35.4590416 12.81027508 C30.58704821 12.7841723 25.71549185 12.74876192 20.84375 12.69213867 C16.14289298 12.63784302 11.44245648 12.60792053 6.74131012 12.59494972 C4.94708891 12.58570541 3.15289092 12.56765324 1.35884857 12.54068565 C-1.15303924 12.50442659 -3.6631859 12.49938908 -6.17529297 12.50170898 C-6.91832169 12.4837326 -7.6613504 12.46575623 -8.42689514 12.44723511 C-12.22392728 12.48522129 -13.73340777 12.74010164 -16.47406006 15.46174622 Z " fill="#2F302F" transform="translate(68.06494140625,13.9306640625)"/>
<path d="M0 0 C1.15711235 0.01441132 1.15711235 0.01441132 2.33760071 0.02911377 C4.86985966 0.06191313 7.40193562 0.10231705 9.93408203 0.14282227 C11.69669971 0.16714205 13.45932403 0.19098466 15.22195435 0.21437073 C19.84814047 0.27702678 24.47420812 0.34614523 29.10028076 0.41662598 C33.82607657 0.48747688 38.551956 0.55219338 43.27783203 0.61743164 C52.54094477 0.7462056 61.80394391 0.88180926 71.06689453 1.02172852 C72.05689453 3.00172852 72.05689453 3.00172852 73.06689453 5.02172852 C43.36689453 4.69172852 13.66689453 4.36172852 -16.93310547 4.02172852 C-12.06754316 -0.8438338 -6.56689541 -0.118548 0 0 Z " fill="#8C8E8E" transform="translate(67.93310546875,13.978271484375)"/>
<path d="M0 0 C0.76150864 -0.00029205 1.52301727 -0.00058411 2.30760193 -0.00088501 C4.81285177 0.0005031 7.31780045 0.01603967 9.82299805 0.03173828 C11.56462949 0.03547026 13.30626304 0.03831636 15.04789734 0.04031372 C19.62311642 0.04793562 24.19820773 0.0675717 28.77337646 0.08972168 C33.44549837 0.11021122 38.117641 0.11932208 42.78979492 0.12939453 C51.95065823 0.15081897 61.11142687 0.18493748 70.2722168 0.22705078 C70.7672168 1.21705078 70.7672168 1.21705078 71.2722168 2.22705078 C69.80429436 2.22918831 69.80429436 2.22918831 68.30671692 2.23136902 C59.08102475 2.24804357 49.85577341 2.29083098 40.63031483 2.35914135 C35.8874308 2.3934222 31.14486925 2.41852302 26.40185547 2.42260742 C21.82391262 2.42688805 17.24669736 2.45533083 12.66898155 2.50048256 C10.92314582 2.51346517 9.17722304 2.51776252 7.43134499 2.51320457 C4.98403133 2.50830374 2.53884846 2.53436438 0.09179688 2.56762695 C-0.62893509 2.55900131 -1.34966705 2.55037567 -2.09223938 2.54148865 C-5.98388414 2.63007438 -7.59145654 3.1143034 -10.63130188 5.62837219 C-12.4667534 7.90349314 -13.82991604 9.8946744 -15.0402832 12.53955078 C-15.36641602 13.23693359 -15.69254883 13.93431641 -16.02856445 14.65283203 C-16.25930664 15.17232422 -16.49004883 15.69181641 -16.7277832 16.22705078 C-17.3877832 16.22705078 -18.0477832 16.22705078 -18.7277832 16.22705078 C-15.51311489 5.76227946 -15.51311489 5.76227946 -12.7277832 2.22705078 C-8.55315894 0.03051944 -4.61159979 -0.04661347 0 0 Z " fill="#131312" transform="translate(63.727783203125,23.77294921875)"/>
<path d="M0 0 C0 3.45530363 -0.85505105 5.53918567 -2.125 8.75 C-2.57488281 9.90757813 -3.02476563 11.06515625 -3.48828125 12.2578125 C-4.49833997 14.79735045 -5.56389812 17.30468756 -6.66796875 19.8046875 C-11.61600089 30.58287554 -11.61600089 30.58287554 -11 42 C-6.54506353 46.40208129 -2.42994155 46.47217199 3.66796875 46.44921875 C4.72628906 46.42472656 5.78460937 46.40023437 6.875 46.375 C7.92558594 46.37371094 8.97617187 46.37242188 10.05859375 46.37109375 C16.03328504 46.30379435 21.27694359 45.72381217 27 44 C26 47 26 47 24.32470703 47.95361328 C18.01459297 50.0888468 12.48711805 50.29108404 5.875 49.875 C4.92496094 49.83890625 3.97492187 49.8028125 2.99609375 49.765625 C-2.64848508 49.46812986 -7.03254227 48.76043075 -12 46 C-15.03375634 41.35456061 -15.51413041 37.4787417 -14.78515625 32.015625 C-13.39861113 26.69018803 -11.02741835 21.79837077 -8.69140625 16.83203125 C-7.05299577 13.29071758 -5.97448393 9.77551312 -5 6 C-4.34 6 -3.68 6 -3 6 C-2.87625 5.195625 -2.7525 4.39125 -2.625 3.5625 C-2.41875 2.716875 -2.2125 1.87125 -2 1 C-1.34 0.67 -0.68 0.34 0 0 Z " fill="#151414" transform="translate(23,67)"/>
<path d="M0 0 C0.66 0.99 1.32 1.98 2 3 C1 6 1 6 -1 7 C-2.78731924 7.0908238 -4.57805489 7.11753799 -6.36767578 7.11352539 C-7.48868683 7.11344986 -8.60969788 7.11337433 -9.76467896 7.11329651 C-10.97928802 7.10813522 -12.19389709 7.10297394 -13.4453125 7.09765625 C-14.68546112 7.0962413 -15.92560974 7.09482635 -17.20333862 7.09336853 C-20.50118133 7.08871096 -23.79897546 7.07972439 -27.09680176 7.06866455 C-30.46166387 7.05843731 -33.82653308 7.05386809 -37.19140625 7.04882812 C-43.79428993 7.03778269 -50.39714099 7.02103247 -57 7 C-56.67 6.01 -56.34 5.02 -56 4 C-38.25916464 2.7899745 -20.7438945 3.23478804 -3 4 C-2.67 3.34 -2.34 2.68 -2 2 C-2 2.66 -2 3.32 -2 4 C-1.34 4 -0.68 4 0 4 C0 2.68 0 1.36 0 0 Z " fill="#A1A1A2" transform="translate(133,107)"/>
<path d="M0 0 C0.33 0 0.66 0 1 0 C0.55211495 6.71827572 -2.10616873 11.98973505 -5 18 C-7.74285561 23.9322226 -10.18619986 29.96397305 -12.56469727 36.04956055 C-14.71302599 41.46605548 -17.1614268 46.71362739 -19.81567383 51.90087891 C-21.71631786 55.77091023 -22.32708627 58.70208648 -22 63 C-22.99 62.67 -23.98 62.34 -25 62 C-24.70132212 53.54651102 -21.62108212 46.94101676 -18.0625 39.375 C-17.17623919 37.45437775 -16.29438151 35.53176996 -15.4125061 33.60913086 C-14.81686328 32.31170798 -14.21967243 31.01499468 -13.62094116 29.71899414 C-10.2752371 22.46872855 -7.12719447 15.13458734 -3.98461914 7.79443359 C-3.60297607 6.90836426 -3.22133301 6.02229492 -2.828125 5.109375 C-2.4971582 4.33561523 -2.16619141 3.56185547 -1.82519531 2.76464844 C-1 1 -1 1 0 0 Z " fill="#151515" transform="translate(44,41)"/>
<path d="M0 0 C0.33 0.66 0.66 1.32 1 2 C2.14476807 1.98428955 3.28953613 1.9685791 4.46899414 1.95239258 C8.73861586 1.89786577 13.00820711 1.86356751 17.27807617 1.83520508 C19.12187892 1.82017012 20.96564622 1.79973667 22.80932617 1.77368164 C25.4680255 1.73706439 28.12624971 1.72022057 30.78515625 1.70703125 C31.60210464 1.69154739 32.41905304 1.67606354 33.26075745 1.66011047 C38.5931209 1.65856196 42.23476933 2.58535652 47 5 C47 5.99 47 6.98 47 8 C46.21391357 7.67475342 45.42782715 7.34950684 44.61791992 7.0144043 C40.02645234 5.7270335 35.85599354 5.73167402 31.11328125 5.76953125 C30.17445602 5.76998947 29.2356308 5.77044769 28.26835632 5.7709198 C26.29241668 5.77393035 24.31647915 5.78178063 22.34057617 5.79418945 C19.31225207 5.8125015 16.2842332 5.81469856 13.25585938 5.81445312 C11.33333068 5.8193668 9.41080406 5.82519446 7.48828125 5.83203125 C6.58201492 5.83314407 5.6757486 5.8342569 4.74201965 5.83540344 C3.90072006 5.84178329 3.05942047 5.84816315 2.19262695 5.85473633 C1.45349564 5.85854813 0.71436432 5.86235992 -0.04716492 5.86628723 C-2.21632184 5.93283871 -2.21632184 5.93283871 -5 7 C-5.66 6.34 -6.32 5.68 -7 5 C-6.030625 4.54625 -5.06125 4.0925 -4.0625 3.625 C-0.92920418 2.34213779 -0.92920418 2.34213779 0 0 Z " fill="#969797" transform="translate(75,45)"/>
<path d="M0 0 C1.14088074 0.00007553 2.28176147 0.00015106 3.45721436 0.00022888 C4.68337463 0.00539017 5.90953491 0.01055145 7.17285156 0.01586914 C8.43236633 0.01728409 9.6918811 0.01869904 10.98956299 0.02015686 C14.33012775 0.02480466 17.67062378 0.03378258 21.01116943 0.04486084 C24.42313037 0.05510941 27.83509841 0.05966185 31.24707031 0.06469727 C37.93589136 0.07572576 44.62467999 0.0924635 51.31347656 0.11352539 C49.54970114 2.37543068 48.66767972 3.06050882 45.78445435 3.49206543 C44.27152298 3.49514709 44.27152298 3.49514709 42.72802734 3.49829102 C41.58318878 3.5084021 40.43835022 3.51851318 39.25881958 3.52893066 C37.40255447 3.5243988 37.40255447 3.5243988 35.50878906 3.51977539 C34.23752167 3.53061157 32.96625427 3.54144775 31.65646362 3.5526123 C27.58374254 3.58696624 23.51130919 3.60309698 19.43847656 3.61352539 C14.08665321 3.62725449 8.73546344 3.6617267 3.38378906 3.70727539 C2.15032745 3.70425415 0.91686584 3.70123291 -0.35397339 3.69812012 C-1.50511627 3.7082312 -2.65625916 3.71834229 -3.84228516 3.72875977 C-5.3576033 3.73184143 -5.3576033 3.73184143 -6.90353394 3.73498535 C-10.12468405 4.17312365 -11.99030247 5.35248131 -14.68652344 7.11352539 C-15.34652344 7.11352539 -16.00652344 7.11352539 -16.68652344 7.11352539 C-16.68652344 5.46352539 -16.68652344 3.81352539 -16.68652344 2.11352539 C-15.61402344 1.96915039 -14.54152344 1.82477539 -13.43652344 1.67602539 C-9.97325052 1.23626069 -9.97325052 1.23626069 -7.80755615 0.58546448 C-5.16004031 -0.00361942 -2.71282455 -0.00600182 0 0 Z " fill="#ABABAB" transform="translate(102.6865234375,138.886474609375)"/>
<path d="M0 0 C0.66 0 1.32 0 2 0 C0.75867643 5.19098948 -1.20275029 9.53938798 -3.6484375 14.2734375 C-5.5174466 18.04386626 -7.07391167 21.92205598 -8.6640625 25.81640625 C-10.95702647 31.28063325 -13.4823889 36.63601759 -16 42 C-13.03824877 41.38722388 -11.61941217 40.74627478 -9 39 C-8.01 39 -7.02 39 -6 39 C-6.33 39.99 -6.66 40.98 -7 42 C-9.0625 42.6875 -9.0625 42.6875 -11 43 C-11 43.66 -11 44.32 -11 45 C-13.97 45.99 -16.94 46.98 -20 48 C-20 43.64850829 -19.1162628 41.50099174 -17.375 37.5546875 C-17.10864746 36.94360138 -16.84229492 36.33251526 -16.56787109 35.70291138 C-15.71876044 33.75718823 -14.86005925 31.81590553 -14 29.875 C-13.14122861 27.92643428 -12.2845879 25.97700111 -11.43212891 24.02566528 C-10.65997405 22.25967636 -9.88092939 20.49670471 -9.1015625 18.73388672 C-7.8754228 16.18206595 -7.8754228 16.18206595 -8 14 C-7.34 13.67 -6.68 13.34 -6 13 C-5.08048052 11.02919189 -4.23654379 9.02265413 -3.4375 7 C-1.08806262 1.08806262 -1.08806262 1.08806262 0 0 Z " fill="#121213" transform="translate(62,134)"/>
<path d="M0 0 C1.09054688 0.02320312 2.18109375 0.04640625 3.3046875 0.0703125 C4.40039062 0.08835937 5.49609375 0.10640625 6.625 0.125 C7.46804687 0.14820312 8.31109375 0.17140625 9.1796875 0.1953125 C8.8496875 1.1853125 8.5196875 2.1753125 8.1796875 3.1953125 C7.14908203 3.21658203 7.14908203 3.21658203 6.09765625 3.23828125 C0.61722733 3.32063294 0.61722733 3.32063294 -3.6953125 6.1953125 C-4.0665625 7.1853125 -4.4378125 8.1753125 -4.8203125 9.1953125 C-5.52577352 10.71748032 -6.23433125 12.23821525 -6.9453125 13.7578125 C-8.19319619 16.54862214 -9.156768 19.20936223 -9.8203125 22.1953125 C-10.4803125 22.1953125 -11.1403125 22.1953125 -11.8203125 22.1953125 C-11.99046875 22.84757812 -12.160625 23.49984375 -12.3359375 24.171875 C-13.83069348 29.56253754 -15.42238152 33.74285122 -18.8203125 38.1953125 C-19.4803125 37.8653125 -20.1403125 37.5353125 -20.8203125 37.1953125 C-16.94699868 27.71805528 -13.01908419 18.2973904 -8.4453125 9.1328125 C-8.11208984 8.46121094 -7.77886719 7.78960937 -7.43554688 7.09765625 C-3.97459657 0.27524907 -3.97459657 0.27524907 0 0 Z " fill="#111112" transform="translate(82.8203125,119.8046875)"/>
<path d="M0 0 C0 0.66 0 1.32 0 2 C-1.2065625 2.433125 -1.2065625 2.433125 -2.4375 2.875 C-5.1326468 3.73262568 -5.1326468 3.73262568 -6 6 C-7.66666667 6.66666667 -9.33333333 7.33333333 -11 8 C-11.33 8.66 -11.66 9.32 -12 10 C-13.32746653 10.35597965 -14.66205442 10.6856904 -16 11 C-17.34829367 11.69084867 -18.67095487 12.43324569 -19.96875 13.21484375 C-20.70480469 13.65376953 -21.44085938 14.09269531 -22.19921875 14.54492188 C-22.95847656 15.00447266 -23.71773437 15.46402344 -24.5 15.9375 C-26.00972943 16.84359398 -27.52012469 17.74857966 -29.03125 18.65234375 C-29.69705078 19.05445068 -30.36285156 19.45655762 -31.04882812 19.87084961 C-36.456 23 -36.456 23 -40 23 C-38.68968665 19.06905994 -37.19647421 18.68440396 -33.625 16.6875 C-31.99304688 15.76710937 -31.99304688 15.76710937 -30.328125 14.828125 C-26.45282966 12.69944165 -22.5715583 10.582601 -18.6796875 8.484375 C-15.08592422 6.49366065 -11.58730291 4.36000391 -8.09375 2.19921875 C-5.26621594 0.57971696 -3.27076712 0 0 0 Z " fill="#121211" transform="translate(97,150)"/>
<path d="M0 0 C2.46894081 2.46894081 3.19433811 4.67679542 4.4609375 7.93359375 C5.16863281 9.7444043 5.16863281 9.7444043 5.890625 11.59179688 C6.38543167 12.87369213 6.88022326 14.1555932 7.375 15.4375 C7.86152477 16.68442218 8.34849949 17.93116891 8.8359375 19.17773438 C9.78679136 21.62075701 10.73059818 24.0665353 11.66699219 26.51513672 C12.52424125 28.75623069 13.39371424 30.9927073 14.27832031 33.22314453 C14.65311523 34.1923584 15.02791016 35.16157227 15.4140625 36.16015625 C15.74615723 37.00328369 16.07825195 37.84641113 16.42041016 38.71508789 C17.05883722 41.23195347 16.85449852 42.57892086 16 45 C15.34 45 14.68 45 14 45 C13.90203125 44.29875 13.8040625 43.5975 13.703125 42.875 C13.55359375 41.92625 13.4040625 40.9775 13.25 40 C13.11078125 39.071875 12.9715625 38.14375 12.828125 37.1875 C11.96597979 33.8690543 10.68910995 31.26330978 9.10986328 28.24414062 C7.03159437 24.04188636 5.45647064 19.63597796 3.8125 15.25 C3.45736328 14.31800781 3.10222656 13.38601562 2.73632812 12.42578125 C-0.42887405 4.05331098 -0.42887405 4.05331098 -1 1 C-0.67 0.67 -0.34 0.34 0 0 Z " fill="#151616" transform="translate(130,67)"/>
<path d="M0 0 C0.66 0 1.32 0 2 0 C-0.48316436 11.1074879 -5.70053216 22.55079824 -12 32 C-12.99 32 -13.98 32 -15 32 C-13.77038022 29.5299743 -12.52023683 27.07474246 -11.25 24.625 C-8.74958496 19.64289961 -6.62151003 14.50428649 -4.46484375 9.3671875 C-3.07979585 6.18342405 -1.58238215 3.08963637 0 0 Z " fill="#111111" transform="translate(66,79)"/>
<path d="M0 0 C1 2 1 2 0.390625 4.16015625 C-4.36656424 16.26492202 -9.70846528 28.12146956 -15 40 C-15.99 39.67 -16.98 39.34 -18 39 C-17.01 38.505 -17.01 38.505 -16 38 C-15.62828835 36.34147073 -15.30097752 34.67281243 -15 33 C-14.424807 31.43006732 -13.8040427 29.87626175 -13.14453125 28.33984375 C-12.77191162 27.4686792 -12.39929199 26.59751465 -12.01538086 25.69995117 C-11.41995483 24.33253784 -11.41995483 24.33253784 -10.8125 22.9375 C-10.40974854 22.00462158 -10.00699707 21.07174316 -9.59204102 20.1105957 C-6.62045787 13.28430595 -3.47692373 6.5857026 0 0 Z " fill="#1B1B1B" transform="translate(40,26)"/>
<path d="M0 0 C0.66 0 1.32 0 2 0 C2 0.99 2 1.98 2 3 C2.66 3 3.32 3 4 3 C4.268125 4.19625 4.53625 5.3925 4.8125 6.625 C5.75147648 10.40074345 7.22885153 13.528549 9 17 C12.64982008 25.00884691 12.69225224 33.35122683 13 42 C12.01 42 11.02 42 10 42 C10.06960937 41.41476563 10.13921875 40.82953125 10.2109375 40.2265625 C10.92908225 28.83883866 6.32178038 17.82951565 1.625 7.625 C0 4 0 4 0 0 Z " fill="#171817" transform="translate(168,79)"/>
<path d="M0 0 C3.0696472 1.5348236 3.36080911 3.93486806 4.6015625 7.08203125 C4.8428891 7.69261887 5.0842157 8.30320648 5.33285522 8.93229675 C5.84218732 10.22639078 6.34800452 11.52187284 6.85058594 12.81860352 C7.61935358 14.79796208 8.40254573 16.77115413 9.1875 18.74414062 C9.68056972 20.00225877 10.17278525 21.26071209 10.6640625 22.51953125 C11.11217285 23.66526611 11.5602832 24.81100098 12.02197266 25.99145508 C13 29 13 29 13 33 C12.34 33 11.68 33 11 33 C10.62488281 31.97261719 10.24976563 30.94523437 9.86328125 29.88671875 C9.34734595 28.4866133 8.83034402 27.08690062 8.3125 25.6875 C8.04356934 24.95998535 7.77463867 24.2324707 7.49755859 23.48291016 C5.56222064 18.31935103 3.3821222 13.34971225 0.8828125 8.4296875 C-0.17818385 5.50960021 -0.1519147 3.08297478 0 0 Z " fill="#151515" transform="translate(138,30)"/>
<path d="M0 0 C7.92 0 15.84 0 24 0 C24 0.99 24 1.98 24 3 C15.75 3 7.5 3 -1 3 C-0.67 2.01 -0.34 1.02 0 0 Z " fill="#141414" transform="translate(96,120)"/>
<path d="M0 0 C-3.16125132 7.4148722 -10.6876594 12.58587857 -17.98046875 15.5234375 C-20 16 -20 16 -23.0625 15.25 C-23.701875 14.8375 -24.34125 14.425 -25 14 C-25 13.67 -25 13.34 -25 13 C-24.17757812 12.81566406 -23.35515625 12.63132813 -22.5078125 12.44140625 C-14.57674562 10.38079419 -9.682876 7.67002147 -3.92578125 1.828125 C-2 0 -2 0 0 0 Z " fill="#101010" transform="translate(174,135)"/>
<path d="M0 0 C0.66 1.32 1.32 2.64 2 4 C13.88 4 25.76 4 38 4 C38 4.33 38 4.66 38 5 C36.8039917 5.02505615 35.6079834 5.0501123 34.37573242 5.07592773 C29.94202805 5.17003852 25.508479 5.27025036 21.07495117 5.37231445 C19.15539175 5.4156494 17.23579415 5.45732552 15.31616211 5.49731445 C12.55831386 5.55505178 9.80065759 5.61873635 7.04296875 5.68359375 C6.18350143 5.70030624 5.32403412 5.71701874 4.43852234 5.73423767 C3.63791885 5.75418289 2.83731537 5.77412811 2.01245117 5.79467773 C1.3085173 5.81022202 0.60458344 5.8257663 -0.12068176 5.84178162 C-2.22699083 5.94481604 -2.22699083 5.94481604 -5 7 C-5.66 6.34 -6.32 5.68 -7 5 C-6.030625 4.54625 -5.06125 4.0925 -4.0625 3.625 C-0.92920418 2.34213779 -0.92920418 2.34213779 0 0 Z " fill="#717271" transform="translate(75,45)"/>
<path d="M0 0 C1.828125 0.22265625 1.828125 0.22265625 4 1 C5.484375 2.99609375 5.484375 2.99609375 6.75 5.4375 C7.39195312 6.64212891 7.39195312 6.64212891 8.046875 7.87109375 C9 10 9 10 9 12 C8.34 12 7.68 12 7 12 C7.66 14.97 8.32 17.94 9 21 C6.30018575 18.30018575 5.29769112 15.11979762 3.9375 11.625 C3.66873047 10.95210937 3.39996094 10.27921875 3.12304688 9.5859375 C1.8767924 6.42834513 0.69146926 3.32929644 0 0 Z " fill="#514750" transform="translate(141,17)"/>
<path d="M0 0 C0.66 0 1.32 0 2 0 C8.51936219 14.59681093 8.51936219 14.59681093 10 22 C9.01 22 8.02 22 7 22 C6.34 19.03 5.68 16.06 5 13 C4.34 13 3.68 13 3 13 C1.70074209 8.66914029 0.656379 4.48525648 0 0 Z " fill="#131313" transform="translate(156,77)"/>
<path d="M0 0 C0.99 0.33 1.98 0.66 3 1 C2.46375 1.886875 1.9275 2.77375 1.375 3.6875 C-1.82258824 9.25452412 -4.36254973 15.1536519 -7 21 C-7.66 21 -8.32 21 -9 21 C-8.34657426 16.3171155 -6.52282617 12.46625214 -4.5 8.25 C-4.01853516 7.22326172 -4.01853516 7.22326172 -3.52734375 6.17578125 C-1.14773261 1.14773261 -1.14773261 1.14773261 0 0 Z " fill="#131313" transform="translate(76,57)"/>
<path d="M0 0 C1.08667969 0.02707031 2.17335938 0.05414063 3.29296875 0.08203125 C4.54013672 0.13423828 4.54013672 0.13423828 5.8125 0.1875 C5.4825 1.1775 5.1525 2.1675 4.8125 3.1875 C4.13703125 3.19007812 3.4615625 3.19265625 2.765625 3.1953125 C-0.00135404 3.31526824 -2.49760214 3.51502554 -5.1875 4.1875 C-7.73548166 7.08903551 -7.73548166 7.08903551 -9.1875 10.1875 C-9.8475 10.1875 -10.5075 10.1875 -11.1875 10.1875 C-9.30142633 2.49812271 -8.22812994 -0.26542355 0 0 Z " fill="#0C0D0E" transform="translate(86.1875,119.8125)"/>
<path d="M0 0 C2.76474354 1.38237177 2.87992128 2.82172345 3.9453125 5.69140625 C4.29980469 6.63564453 4.65429688 7.57988281 5.01953125 8.55273438 C5.38433594 9.54595703 5.74914062 10.53917969 6.125 11.5625 C6.68380859 13.05813477 6.68380859 13.05813477 7.25390625 14.58398438 C8.17562078 17.05370664 9.09066081 19.52570007 10 22 C9.01 22 8.02 22 7 22 C5.82232545 19.27512547 4.65770524 16.54584655 3.5 13.8125 C3.16613281 13.04357422 2.83226562 12.27464844 2.48828125 11.48242188 C0.8292764 7.53805321 -0.4904688 4.37042736 0 0 Z " fill="#171817" transform="translate(158,53)"/>
<path d="M0 0 C0.66 0 1.32 0 2 0 C2.96277259 2.35243492 3.92028498 4.70679619 4.875 7.0625 C5.14441406 7.71927734 5.41382813 8.37605469 5.69140625 9.05273438 C7.41389523 13.31694491 8.80982981 17.55708313 10 22 C7 21 7 21 6.0168457 19.28173828 C5.73929443 18.55196777 5.46174316 17.82219727 5.17578125 17.0703125 C4.86962891 16.27496094 4.56347656 15.47960937 4.24804688 14.66015625 C3.93931641 13.82355469 3.63058594 12.98695312 3.3125 12.125 C2.83200195 10.88169922 2.83200195 10.88169922 2.34179688 9.61328125 C0 3.43173641 0 3.43173641 0 0 Z " fill="#181818" transform="translate(148,29)"/>
<path d="M0 0 C1.19882813 0.15275391 1.19882813 0.15275391 2.421875 0.30859375 C3.02515625 0.39238281 3.6284375 0.47617188 4.25 0.5625 C4.25 0.8925 4.25 1.2225 4.25 1.5625 C3.36957031 1.67207031 2.48914063 1.78164062 1.58203125 1.89453125 C0.42058594 2.05308594 -0.74085937 2.21164063 -1.9375 2.375 C-3.08605469 2.52582031 -4.23460938 2.67664063 -5.41796875 2.83203125 C-8.78162721 3.56943352 -10.88893328 4.70763437 -13.75 6.5625 C-14.41 6.5625 -15.07 6.5625 -15.75 6.5625 C-15.75 4.9125 -15.75 3.2625 -15.75 1.5625 C-14.6775 1.418125 -13.605 1.27375 -12.5 1.125 C-9.02440116 0.68882634 -9.02440116 0.68882634 -6.8125 0 C-4.38222215 -0.51551348 -2.45696415 -0.32518643 0 0 Z " fill="#959595" transform="translate(101.75,139.4375)"/>
<path d="M0 0 C-0.33 0.99 -0.66 1.98 -1 3 C-3.0625 3.6875 -3.0625 3.6875 -5 4 C-5 4.66 -5 5.32 -5 6 C-9.455 7.485 -9.455 7.485 -14 9 C-14.33 8.01 -14.66 7.02 -15 6 C-13.35 6 -11.7 6 -10 6 C-10 5.34 -10 4.68 -10 4 C-3.375 0 -3.375 0 0 0 Z " fill="#101010" transform="translate(56,173)"/>
<path d="M0 0 C0.33 0 0.66 0 1 0 C4.38954192 8.25279772 4.68671942 16.19573542 5 25 C4.01 25 3.02 25 2 25 C2.03480469 23.93072266 2.03480469 23.93072266 2.0703125 22.83984375 C2.17855337 17.09534607 1.70020024 12.52565077 0 7 C-0.07403678 4.66784156 -0.09515886 2.33139212 0 0 Z " fill="#0E0E0E" transform="translate(176,96)"/>
<path d="M0 0 C0.66 0.33 1.32 0.66 2 1 C1.7186941 3.45993028 1.42547269 5.91740248 1.125 8.375 C1.04636719 9.07367188 0.96773437 9.77234375 0.88671875 10.4921875 C0.2265625 15.7734375 0.2265625 15.7734375 -2 18 C-3.21357445 11.04952816 -2.71975816 6.49976102 0 0 Z " fill="#1E1E1D" transform="translate(11,92)"/>
<path d="M0 0 C0.99 0.33 1.98 0.66 3 1 C2.2575 1.825 1.515 2.65 0.75 3.5 C-2.22452873 7.04231626 -4.05293532 10.81741662 -6 15 C-6.66 15 -7.32 15 -8 15 C-4.96774194 5.12903226 -4.96774194 5.12903226 -2 1 C-1.34 0.67 -0.68 0.34 0 0 Z " fill="#131312" transform="translate(53,25)"/>
<path d="M0 0 C0.66 0.66 1.32 1.32 2 2 C-4.93 2 -11.86 2 -19 2 C-18.67 1.34 -18.34 0.68 -18 0 C-12.26592421 -1.70472523 -5.83197938 -1.00400843 0 0 Z " fill="#949291" transform="translate(72,15)"/>
<path d="M0 0 C6.27 0 12.54 0 19 0 C19 0.33 19 0.66 19 1 C16.36 1 13.72 1 11 1 C11 1.66 11 2.32 11 3 C7.70303895 4.09898702 6.59505097 3.87124444 3.3125 3.0625 C2.10013672 2.77052734 2.10013672 2.77052734 0.86328125 2.47265625 C-0.05904297 2.23869141 -0.05904297 2.23869141 -1 2 C-0.67 1.34 -0.34 0.68 0 0 Z " fill="#383838" transform="translate(80,55)"/>
<path d="M0 0 C1.32 0.66 2.64 1.32 4 2 C4 2.66 4 3.32 4 4 C-5.57 3.67 -15.14 3.34 -25 3 C-25 2.67 -25 2.34 -25 2 C-24.27820557 1.97494385 -23.55641113 1.9498877 -22.81274414 1.92407227 C-19.562465 1.80848698 -16.31250312 1.68559226 -13.0625 1.5625 C-11.92619141 1.52318359 -10.78988281 1.48386719 -9.61914062 1.44335938 C-7.99975586 1.38051758 -7.99975586 1.38051758 -6.34765625 1.31640625 C-5.34742432 1.27974854 -4.34719238 1.24309082 -3.31665039 1.20532227 C-1.03930812 1.25328159 -1.03930812 1.25328159 0 0 Z " fill="#A9AAA9" transform="translate(137,15)"/>
<path d="M0 0 C3.96 0 7.92 0 12 0 C12 0.99 12 1.98 12 3 C8.04 3 4.08 3 0 3 C0 2.01 0 1.02 0 0 Z " fill="#1D1D1D" transform="translate(108,120)"/>
<path d="M0 0 C3.16277272 1.58138636 3.43093689 4.32596051 4.625 7.5625 C5.29402344 9.35880859 5.29402344 9.35880859 5.9765625 11.19140625 C6.31429687 12.11824219 6.65203125 13.04507813 7 14 C6.01 14 5.02 14 4 14 C3.35004703 12.58521865 2.70521278 11.16808513 2.0625 9.75 C1.70285156 8.96109375 1.34320313 8.1721875 0.97265625 7.359375 C0.09447315 5.22916379 -0.60349832 3.26859191 -1 1 C-0.67 0.67 -0.34 0.34 0 0 Z " fill="#121213" transform="translate(120,70)"/>
<path d="M0 0 C2.2477975 2.05233685 3.0022242 3.00667261 4 6 C4.06802967 7.72795352 4.08495645 9.45835365 4.0625 11.1875 C4.05347656 12.08855469 4.04445312 12.98960938 4.03515625 13.91796875 C4.02355469 14.60503906 4.01195312 15.29210937 4 16 C3.34 16.33 2.68 16.66 2 17 C1.92652344 15.89591797 1.92652344 15.89591797 1.8515625 14.76953125 C1.77679688 13.79371094 1.70203125 12.81789063 1.625 11.8125 C1.55539063 10.84957031 1.48578125 9.88664062 1.4140625 8.89453125 C0.99784147 5.98491062 0.20125904 3.67109226 -1 1 C-0.67 0.67 -0.34 0.34 0 0 Z " fill="#121515" transform="translate(166,101)"/>
<path d="M0 0 C0.33 0.99 0.66 1.98 1 3 C-3.29 5.31 -7.58 7.62 -12 10 C-12 9.01 -12 8.02 -12 7 C-9.375 5.17578125 -9.375 5.17578125 -6 3.3125 C-4.88625 2.68988281 -3.7725 2.06726563 -2.625 1.42578125 C-1.75875 0.95527344 -0.8925 0.48476562 0 0 Z " fill="#545353" transform="translate(85,144)"/>
<path d="M0 0 C-6.03076923 4.92307692 -6.03076923 4.92307692 -10.9375 5.3125 C-11.948125 5.209375 -12.95875 5.10625 -14 5 C-14 4.34 -14 3.68 -14 3 C-12.23358317 2.3012307 -10.46167336 1.61633417 -8.6875 0.9375 C-7.20830078 0.36322266 -7.20830078 0.36322266 -5.69921875 -0.22265625 C-3 -1 -3 -1 0 0 Z " fill="#5A5A59" transform="translate(163,135)"/>
<path d="M0 0 C0.66 0 1.32 0 2 0 C1.28269264 3.23165844 0.18684926 6.18707922 -1.0625 9.25 C-1.42472656 10.14203125 -1.78695312 11.0340625 -2.16015625 11.953125 C-2.57587891 12.96632812 -2.57587891 12.96632812 -3 14 C-3.66 14 -4.32 14 -5 14 C-4.34580901 8.93001981 -2.1453591 4.58009223 0 0 Z " fill="#171717" transform="translate(68,119)"/>
<path d="M0 0 C0.66 0 1.32 0 2 0 C2.70088156 1.74468372 3.38524009 3.49601161 4.0625 5.25 C4.44535156 6.22453125 4.82820312 7.1990625 5.22265625 8.203125 C6.01113787 11.04007395 6.02437812 12.29409552 5 15 C4.34 15 3.68 15 3 15 C2.86722656 14.25234375 2.73445312 13.5046875 2.59765625 12.734375 C2.42105469 11.74953125 2.24445313 10.7646875 2.0625 9.75 C1.88847656 8.77546875 1.71445313 7.8009375 1.53515625 6.796875 C1.09620271 4.50278205 0.59651408 2.25708029 0 0 Z " fill="#101010" transform="translate(141,97)"/>
<path d="M0 0 C0.66 0 1.32 0 2 0 C0.64475824 5.42096702 -1.36634013 10.0778687 -4 15 C-4.66 14.34 -5.32 13.68 -6 13 C-5.1905146 11.01959844 -4.37732831 9.04070923 -3.5625 7.0625 C-3.11003906 5.96035156 -2.65757813 4.85820312 -2.19140625 3.72265625 C-1 1 -1 1 0 0 Z " fill="#1B1B1B" transform="translate(62,134)"/>
<path d="M0 0 C0.66 0.66 1.32 1.32 2 2 C-0.47585238 4.65269897 -2.59026101 6.68010103 -6 8 C-6.99 8 -7.98 8 -9 8 C-9.33 7.01 -9.66 6.02 -10 5 C-8.906875 4.731875 -7.81375 4.46375 -6.6875 4.1875 C-3.38307337 3.12336261 -2.05039578 2.65345336 0 0 Z " fill="#151413" transform="translate(143,114)"/>
<path d="M0 0 C3.38229971 2.25486647 3.51119464 2.73202976 4.3125 6.5 C4.58513672 7.69109375 4.58513672 7.69109375 4.86328125 8.90625 C4.93095703 9.94265625 4.93095703 9.94265625 5 11 C4.34 11.66 3.68 12.32 3 13 C1.68 9.04 0.36 5.08 -1 1 C-0.67 0.67 -0.34 0.34 0 0 Z " fill="#131314" transform="translate(151,64)"/>
<path d="M0 0 C0.66 0.33 1.32 0.66 2 1 C0.8905928 4.48670834 -0.26337666 7.77484237 -2 11 C-2.66 11 -3.32 11 -4 11 C-3.48964169 6.6109185 -2.47785723 3.66291938 0 0 Z " fill="#0F0F0F" transform="translate(27,80)"/>
<path d="M0 0 C1.8125 0.125 1.8125 0.125 4 1 C5.95320589 4.20883825 7 6.2205439 7 10 C6.01 9.67 5.02 9.34 4 9 C3.67 7.02 3.34 5.04 3 3 C2.34 3 1.68 3 1 3 C0.67 2.01 0.34 1.02 0 0 Z " fill="#161717" transform="translate(113,59)"/>
<path d="M0 0 C2.72957339 2.35735884 3.88893396 4.58133526 5 8 C5 8.99 5 9.98 5 11 C4.34 11 3.68 11 3 11 C1.68 7.7 0.36 4.4 -1 1 C-0.67 0.67 -0.34 0.34 0 0 Z " fill="#1E1919" transform="translate(130,95)"/>
<path d="M0 0 C0.66 0 1.32 0 2 0 C1.54554036 1.41791408 1.08625056 2.83428046 0.625 4.25 C0.36976562 5.03890625 0.11453125 5.8278125 -0.1484375 6.640625 C-0.95173667 8.86627958 -1.89711662 10.90931672 -3 13 C-3.66 12.34 -4.32 11.68 -5 11 C-3.35 7.37 -1.7 3.74 0 0 Z " fill="#161717" transform="translate(63,61)"/>
<path d="M0 0 C0.33 0 0.66 0 1 0 C1.39253254 4.44870215 0.15305957 7.14243493 -2 11 C-2.99 10.67 -3.98 10.34 -5 10 C-3.35 6.7 -1.7 3.4 0 0 Z " fill="#11120F" transform="translate(178,123)"/>
<path d="M0 0 C0.33 0.66 0.66 1.32 1 2 C-1.23407889 5.35111834 -2.26215824 6.81553956 -6.25 7.8125 C-7.61125 7.9053125 -7.61125 7.9053125 -9 8 C-8.34 7.01 -7.68 6.02 -7 5 C-6.01 5 -5.02 5 -4 5 C-4 4.34 -4 3.68 -4 3 C-3.01 3 -2.02 3 -1 3 C-0.67 2.01 -0.34 1.02 0 0 Z " fill="#40403F" transform="translate(167,127)"/>
<path d="M0 0 C2.64 0.99 5.28 1.98 8 3 C8 3.99 8 4.98 8 6 C2.33846154 4.52307692 2.33846154 4.52307692 0.625 1.875 C0.41875 1.25625 0.2125 0.6375 0 0 Z " fill="#8A8A88" transform="translate(114,47)"/>
<path d="M0 0 C0 0.33 0 0.66 0 1 C-1.62463842 1.05395478 -3.24978541 1.09277195 -4.875 1.125 C-5.77992187 1.14820313 -6.68484375 1.17140625 -7.6171875 1.1953125 C-10 1 -10 1 -12 -1 C-7.28400182 -1.92470553 -4.32734391 -2.22923777 0 0 Z " fill="#252525" transform="translate(116,58)"/>
<path d="M0 0 C0.99 0 1.98 0 3 0 C4.32 2.64 5.64 5.28 7 8 C6.34 8.66 5.68 9.32 5 10 C3.33333333 6.66666667 1.66666667 3.33333333 0 0 Z " fill="#1A1B1A" transform="translate(142,18)"/>
<path d="M0 0 C0.66 0.99 1.32 1.98 2 3 C1.67 3.99 1.34 4.98 1 6 C-2.96 6 -6.92 6 -11 6 C-11 5.67 -11 5.34 -11 5 C-5.555 4.505 -5.555 4.505 0 4 C0 2.68 0 1.36 0 0 Z " fill="#A5A6A4" transform="translate(133,107)"/>
<path d="M0 0 C0.33 0.66 0.66 1.32 1 2 C0.22265625 3.9453125 0.22265625 3.9453125 -0.9375 6.125 C-1.31777344 6.84945312 -1.69804688 7.57390625 -2.08984375 8.3203125 C-2.39019531 8.87460938 -2.69054688 9.42890625 -3 10 C-3.66 10 -4.32 10 -5 10 C-4.55090939 8.51800098 -4.09043436 7.03944764 -3.625 5.5625 C-3.36976562 4.73878906 -3.11453125 3.91507812 -2.8515625 3.06640625 C-2 1 -2 1 0 0 Z " fill="#1A1616" transform="translate(56,80)"/>
<path d="M0 0 C1.39195915 4.17587745 -0.17676781 6.13474776 -2 10 C-2.99 9.67 -3.98 9.34 -5 9 C-4.34 8.67 -3.68 8.34 -3 8 C-2.64984951 6.33678518 -2.31802943 4.66965451 -2 3 C-1.34 2.01 -0.68 1.02 0 0 Z " fill="#121212" transform="translate(27,56)"/>
<path d="M0 0 C1 2 1 2 0.44140625 3.9453125 C0.15136719 4.66460937 -0.13867188 5.38390625 -0.4375 6.125 C-0.72496094 6.84945312 -1.01242188 7.57390625 -1.30859375 8.3203125 C-1.53675781 8.87460937 -1.76492187 9.42890625 -2 10 C-2.99 10 -3.98 10 -5 10 C-4.71125 9.443125 -4.4225 8.88625 -4.125 8.3125 C-2.94687457 5.9654682 -2.94687457 5.9654682 -1.9375 3.3125 C-1 1 -1 1 0 0 Z " fill="#242423" transform="translate(68,51)"/>
<path d="M0 0 C2.84880302 4.27320453 4.28990619 6.78168857 4 12 C0.46209597 8.30827405 0.40884117 4.90609405 0 0 Z " fill="#141414" transform="translate(125,55)"/>
<path d="M0 0 C-2.98646769 1.99097846 -5.59687262 2.94124926 -9 4 C-9.33 3.01 -9.66 2.02 -10 1 C-6.59437148 0.22157062 -3.49234244 -0.09978121 0 0 Z " fill="#080707" transform="translate(51,178)"/>
<path d="M0 0 C0 0.99 0 1.98 0 3 C-3.33333333 6 -3.33333333 6 -6 6 C-6 5.01 -6 4.02 -6 3 C-4.02 2.01 -2.04 1.02 0 0 Z " fill="#5D5D5C" transform="translate(51,15)"/>
<path d="M0 0 C0.99 0.33 1.98 0.66 3 1 C1.02 3.97 1.02 3.97 -1 7 C-1.66 6.67 -2.32 6.34 -3 6 C-2.01 4.02 -1.02 2.04 0 0 Z " fill="#171717" transform="translate(65,151)"/>
<path d="M0 0 C0.99 0.33 1.98 0.66 3 1 C0.69 2.65 -1.62 4.3 -4 6 C-4.66 5.67 -5.32 5.34 -6 5 C-1.60546875 0.99609375 -1.60546875 0.99609375 0 0 Z " fill="#5C5D5B" transform="translate(68,154)"/>
<path d="M0 0 C-0.33 0.99 -0.66 1.98 -1 3 C-3.31 3.33 -5.62 3.66 -8 4 C-8 3.34 -8 2.68 -8 2 C-2.25 0 -2.25 0 0 0 Z " fill="#151514" transform="translate(50,111)"/>
<path d="M0 0 C-0.33 0.66 -0.66 1.32 -1 2 C-3.97 1.67 -6.94 1.34 -10 1 C-10 0.67 -10 0.34 -10 0 C-6.33694766 -0.74926071 -3.57644848 -1.2380014 0 0 Z " fill="#262626" transform="translate(96,121)"/>
<path d="M0 0 C0.99 0.495 0.99 0.495 2 1 C2.59355614 3.64860427 2.74209269 6.29197322 3 9 C1.5 7.875 1.5 7.875 0 6 C-0.1875 2.8125 -0.1875 2.8125 0 0 Z " fill="#1A1B18" transform="translate(138,30)"/>
<path d="" fill="#000000" transform="translate(0,0)"/>
<path d="" fill="#000000" transform="translate(0,0)"/>
<path d="" fill="#000000" transform="translate(0,0)"/>
<path d="" fill="#000000" transform="translate(0,0)"/>
<path d="" fill="#000000" transform="translate(0,0)"/>
<path d="" fill="#000000" transform="translate(0,0)"/>
<path d="" fill="#000000" transform="translate(0,0)"/>
<path d="" fill="#000000" transform="translate(0,0)"/>
<path d="" fill="#000000" transform="translate(0,0)"/>
<path d="" fill="#000000" transform="translate(0,0)"/>
<path d="" fill="#000000" transform="translate(0,0)"/>
</svg>
